<svg
        xmlns="http://www.w3.org/2000/svg"
        viewBox="0 0 64 64"
        width="40"
        height="40"
        fill="#FFA500" // Оранжевий колір для кулінарної тематики
      >
        <circle cx="32" cy="32" r="30" stroke="#333" strokeWidth="4" fill="white" />
        <path
          d="M32 6a26 26 0 1 1 0 52 26 26 0 0 1 0-52z"
          fill="#FFA500"
        />
        <path
          d="M32 12a20 20 0 1 1 0 40 20 20 0 0 1 0-40z"
          fill="#fff"
        />
        <path
          d="M32 18a14 14 0 1 1 0 28 14 14 0 0 1 0-28z"
          fill="#FFA500"
        />
        <path
          d="M32 24a8 8 0 1 1 0 16 8 8 0 0 1 0-16z"
          fill="#fff"
        />
      </svg>